HIERARCHY
ROOT hip
{
	OFFSET 0.000000 0.000000 0.000000 
	CHANNELS 6 Xposition Yposition Zposition Zrotation Xrotation Yrotation
	JOINT abdomen
	{
		OFFSET 0.000000 3.402643 0.000000 
		CHANNELS 3 Zrotation Xrotation Yrotation
		JOINT chest
		{
			OFFSET 0.000000 8.438565 -0.680529 
			CHANNELS 3 Zrotation Xrotation Yrotation
			JOINT neck
			{
				OFFSET 0.000000 10.207942 -0.272212 
				CHANNELS 3 Zrotation Xrotation Yrotation
				JOINT head
				{
					OFFSET 0.000000 3.130431 0.000000 
					CHANNELS 3 Zrotation Xrotation Yrotation
					End Site
					{
						OFFSET 0.000000 3.130435 0.000000 
					}
				}
			}
			JOINT lCollar
			{
				OFFSET 3.470700 6.669187 -0.816635 
				CHANNELS 3 Zrotation Xrotation Yrotation
				JOINT lShldr
				{
					OFFSET 3.198488 0.000000 0.000000 
					CHANNELS 3 Zrotation Xrotation Yrotation
					JOINT lForeArm
					{
						OFFSET 10.139888 0.000000 0.000000 
						CHANNELS 3 Zrotation Xrotation Yrotation
						JOINT lHand
						{
							OFFSET 8.370511 0.000000 0.000000 
							CHANNELS 3 Zrotation Xrotation Yrotation
							End Site
							{
								OFFSET 4.083176 0.000000 0.000000 
							}
						}
					}
				}
			}
			JOINT rCollar
			{
				OFFSET -3.470700 6.669187 -0.816635 
				CHANNELS 3 Zrotation Xrotation Yrotation
				JOINT rShldr
				{
					OFFSET -3.198488 0.000000 0.000000 
					CHANNELS 3 Zrotation Xrotation Yrotation
					JOINT rForeArm
					{
						OFFSET -10.139888 0.000000 0.000000 
						CHANNELS 3 Zrotation Xrotation Yrotation
						JOINT rHand
						{
							OFFSET -8.370511 0.000000 0.000000 
							CHANNELS 3 Zrotation Xrotation Yrotation
							End Site
							{
								OFFSET -4.083176 0.000000 0.000000 
							}
						}
					}
				}
			}
		}
	}
	JOINT lThigh
	{
		OFFSET 5.308129 -1.633274 1.361059 
		CHANNELS 3 Zrotation Xrotation Yrotation
		JOINT lShin
		{
			OFFSET -2.041588 -20.007561 0.000000 
			CHANNELS 3 Zrotation Xrotation Yrotation
			JOINT lFoot
			{
				OFFSET 0.000000 -19.190928 -1.224953 
				CHANNELS 3 Zrotation Xrotation Yrotation
				End Site
				{
					OFFSET 0.000000 -2.449906 4.627600 
				}
			}
		}
	}
	JOINT rThigh
	{
		OFFSET -5.308129 -1.633274 1.361059 
		CHANNELS 3 Zrotation Xrotation Yrotation
		JOINT rShin
		{
			OFFSET 2.041588 -20.007561 0.000000 
			CHANNELS 3 Zrotation Xrotation Yrotation
			JOINT rFoot
			{
				OFFSET 0.000000 -19.190928 -1.224953 
				CHANNELS 3 Zrotation Xrotation Yrotation
				End Site
				{
					OFFSET 0.000000 -2.449906 4.627600 
				}
			}
		}
	}
}
MOTION
Frames: 6
Frame Time: 0.033333
0.282596 27.940989 17.480658 -0.019531 -0.039088 9.882797 -0.000000 -0.000002 -0.000000 -0.908204 -0.078115 -17.227800 3.615576 -22.908260 10.491005 -0.954937 -15.993991 -0.145955 -2.000757 -0.069240 1.990978 -84.165825 8.050446 -49.344574 5.945282 4.821916 -92.379318 -2.462368 17.439594 -34.914104 1.990970 -0.069577 -2.000746 75.205399 21.067438 54.050606 -14.616988 0.132064 91.467491 1.370092 5.982686 35.269249 0.664643 -12.940173 -21.992197 -121.378906 78.517372 112.001160 -8.127073 48.169182 1.905886 -2.681595 -11.581045 9.930026 104.959511 70.373940 -83.372459 18.043449 37.527859 -17.831436 
0.294179 27.941210 17.475714 -0.019531 -0.039088 9.882797 -0.000000 -0.000002 -0.000000 -0.947278 -0.292929 -17.075302 3.513147 -22.637474 10.319051 -0.954937 -15.993991 -0.145955 -2.000757 -0.069240 1.990978 -84.203255 8.265451 -49.060345 5.957938 4.807750 -92.418121 -2.490407 17.427950 -34.911560 1.990970 -0.069577 -2.000746 75.287659 20.914782 53.539719 -14.617599 0.040876 91.817123 1.440791 6.026987 35.055904 0.655125 -12.929349 -21.984846 -121.207031 78.515709 111.834137 -8.099278 48.160156 1.882969 -2.671016 -11.492982 9.930761 105.119263 70.348579 -83.499237 17.995079 37.391491 -17.799400 
0.305754 27.941210 17.470659 -0.019531 -0.039084 9.873034 -0.000000 -0.000002 -0.000000 -0.966830 -0.478445 -16.912371 3.401832 -22.415531 10.136387 -0.954937 -15.993991 -0.145955 -2.000757 -0.069240 1.990978 -84.234077 8.472495 -48.805092 5.959529 4.804744 -92.447296 -2.533701 17.401550 -34.895313 1.990970 -0.069577 -2.000746 75.339806 20.746733 53.048790 -14.617154 -0.074540 92.220985 1.522946 6.082531 34.784290 0.671225 -12.860192 -21.978788 -121.336067 78.522774 111.950546 -8.124736 48.120564 1.912507 -2.650582 -11.495978 9.923802 104.910004 70.387886 -83.336357 18.031662 37.525208 -17.804075 
0.317338 27.941324 17.465605 -0.019531 -0.039081 9.863269 -0.000000 -0.000002 -0.000000 -0.986386 -0.624906 -16.729675 3.301930 -22.212757 9.921867 -0.954937 -15.993991 -0.145955 -2.000757 -0.069240 1.990978 -84.253952 8.711746 -48.575745 5.953004 4.801111 -92.485458 -2.606895 17.385256 -34.724537 1.990970 -0.069577 -2.000746 75.383209 20.562017 52.565712 -14.606304 -0.194837 92.684059 1.630610 6.143541 34.453991 0.662115 -12.856652 -21.941360 -121.524551 78.510788 112.122765 -8.103150 48.170860 1.926498 -2.650387 -11.467153 9.936491 104.994965 70.380089 -83.424072 18.045488 37.529060 -17.790787 
0.328913 27.941545 17.460546 -0.019531 -0.039081 9.863269 -0.000000 -0.000002 -0.000000 -0.986407 -0.732310 -16.526278 3.182392 -22.059044 9.712370 -0.954937 -15.993991 -0.145955 -2.000757 -0.069240 1.990978 -84.250298 8.957289 -48.378117 5.956738 4.807742 -92.515785 -2.690664 17.374710 -34.565544 1.990970 -0.069577 -2.000746 75.426247 20.355171 52.099636 -14.604554 -0.315913 93.187378 1.759148 6.205029 34.054703 0.661330 -12.850163 -21.981224 -121.556290 78.460640 112.167549 -8.120226 48.142441 1.995756 -2.650257 -11.448228 9.948177 105.046066 70.364799 -83.489273 18.000366 37.535412 -17.766716 
0.340488 27.941658 17.455606 -0.019531 -0.039077 9.853503 -0.000000 -0.000002 -0.000000 -0.976660 -0.810429 -16.322407 3.063556 -21.924730 9.494444 -0.954937 -15.993991 -0.145955 -2.000757 -0.069240 1.990978 -84.261147 9.200957 -48.210899 5.959567 4.793981 -92.553757 -2.768573 17.373869 -34.335575 1.990970 -0.069577 -2.000746 75.460701 20.133451 51.665501 -14.590248 -0.472424 93.752029 1.914298 6.270756 33.596584 0.662125 -12.846924 -21.942204 -121.688148 78.467255 112.306038 -8.077054 48.143009 1.935244 -2.660229 -11.446330 9.946867 105.128387 70.357170 -83.545830 18.003963 37.505516 -17.762995 
